#!OML:ASF F:\VICON\USERDATA\INSTALL\Justin_Nancy\Justin_Nancy.ASF
:FULLY-SPECIFIED
:DEGREES
1
root -8.00198 17.2136 -32.2511 0.953019 -0.101308 6.45173
lowerback 2.79743 -4.1352 -7.11323
upperback 1.12162 -5.69169 1.3161
thorax 0.424377 -2.90001 5.43171
lowerneck -11.1749 0.312604 -11.3127
upperneck 15.0215 1.5177 5.64001
head 6.27103 0.55061 3.79891
rclavicle 4.47266e-014 -1.82882e-014
rhumerus -34.1764 -16.1326 -76.5905
rradius 24.4429
rwrist 12.7332
rhand -11.4066 13.2525
rfingers 7.12502
rthumb 14.6288 -16.2115
lclavicle 4.47266e-014 -1.82882e-014
lhumerus -24.8458 13.4099 80.8244
lradius 30.7455
lwrist -7.37743
lhand -17.7087 25.2777
lfingers 7.12502
lthumb 8.55146 55.0845
rfemur -28.3798 0.103948 15.8334
rtibia 17.3549
rfoot -3.85112 -6.56553
rtoes -3.47022
lfemur 10.5277 -1.16454 -30.9444
ltibia 17.6004
lfoot -14.7057 -0.633759
ltoes -12.3235
2
root -8.0312 17.2113 -32.0674 0.890805 0.38553 6.49004
lowerback 2.09375 -3.74632 -6.33314
upperback 1.98841 -5.07792 0.446214
thorax 1.4746 -2.63544 4.00854
lowerneck -12.9423 -0.715871 -10.3339
upperneck 15.8545 0.0727783 5.8958
head 6.9715 -0.0672455 3.63204
rclavicle -7.05686e-015 -7.95139e-015
rhumerus -33.8233 -19.1993 -77.0319
rradius 24.6564
rwrist 12.8157
rhand -10.824 13.2264
rfingers 7.12502
rthumb 15.1901 -16.196
lclavicle -7.05686e-015 -7.95139e-015
lhumerus -23.1276 11.1997 80.6841
lradius 30.7221
lwrist -6.95209
lhand -17.4402 26.5089
lfingers 7.12502
lthumb 8.81054 56.305
rfemur -28.1853 0.0260476 15.9796
rtibia 18.8162
rfoot -4.20721 -6.9791
rtoes -4.00008
lfemur 10.9142 -1.52293 -30.7934
ltibia 18.0393
lfoot -14.3034 -1.11523
ltoes -14.9933
3
root -8.06643 17.2303 -31.8722 0.67528 1.56738 6.67177
lowerback 4.69883 -4.37109 -8.72243
upperback 0.0102204 -6.25212 2.22333
thorax -1.43797 -3.06463 7.51738
lowerneck -11.3756 -0.277463 -11.983
upperneck 17.0487 1.01225 4.69374
head 7.01832 0.127913 3.59973
rclavicle -2.09718e-014 6.36111e-015
rhumerus -36.3411 -14.7183 -74.803
rradius 25.2376
rwrist 11.3477
rhand -10.876 12.7554
rfingers 7.12502
rthumb 15.14 -16.6708
lclavicle -2.09718e-014 6.36111e-015
lhumerus -26.9198 14.0595 81.8565
lradius 31.0909
lwrist -7.58208
lhand -17.6892 26.686
lfingers 7.12502
lthumb 8.57027 56.492
rfemur -27.3627 -0.164597 15.7702
rtibia 19.6615
rfoot -3.82729 -7.81083
rtoes -5.44619
lfemur 11.6292 -2.32027 -30.6815
ltibia 18.3561
lfoot -13.9368 -1.81676
ltoes -17.1686
4
root -8.08127 17.2321 -31.7284 1.0258 -0.923811 6.72859
lowerback 6.01281 -3.52416 -9.78625
upperback -1.1939 -5.33715 2.9629
thorax -3.45884 -2.42386 9.08017
lowerneck -11.1241 -0.143622 -12.4621
upperneck 17.7276 1.35324 4.14835
head 7.17516 0.186293 3.53816
rclavicle -7.7526e-014 1.43125e-014
rhumerus -37.6065 -13.1083 -73.7247
rradius 25.3205
rwrist 10.9133
rhand -11.2416 12.6741
rfingers 7.12502
rthumb 14.7877 -16.7783
lclavicle -7.7526e-014 1.43125e-014
lhumerus -28.6702 15.0934 82.298
lradius 30.9815
lwrist -8.18607
lhand -18.4115 26.0774
lfingers 7.12502
lthumb 7.87319 55.9107
rfemur -28.3272 0.935334 16.1687
rtibia 20.3522
rfoot -2.08641 -5.89594
rtoes -6.58893
lfemur 11.3417 -1.26307 -31.1995
ltibia 18.6299
lfoot -13.3695 -0.614173
ltoes -20.0281
5
root -8.10837 17.2845 -31.5218 0.844359 1.01988 6.4437
lowerback 6.59969 -3.65028 -9.2533
upperback -1.1648 -5.51963 2.88157
thorax -3.77293 -2.50809 8.74949
lowerneck -12.0879 -0.720775 -12.0674
upperneck 18.1883 0.643718 4.0366
head 7.56132 -0.146865 3.38894
rclavicle 8.94034e-014 -1.27222e-014
rhumerus -38.0435 -14.7685 -73.018
rradius 25.3813
rwrist 10.8242
rhand -10.8187 13.1847
rfingers 7.12502
rthumb 15.1951 -16.2373
lclavicle 8.94034e-014 -1.27222e-014
lhumerus -28.3181 13.9727 82.8443
lradius 30.7878
lwrist -8.56758
lhand -18.834 26.1412
lfingers 7.12502
lthumb 7.46541 55.9895
rfemur -27.4067 0.730767 16.0565
rtibia 20.7469
rfoot -1.33422 -7.27993
rtoes -6.05994
lfemur 12.141 -2.85806 -30.6081
ltibia 18.9671
lfoot -12.6374 -1.40331
ltoes -22.0651
6
root -8.1336 17.3121 -31.3306 0.76032 1.58627 6.16044
lowerback 6.72156 -4.35512 -9.50306
upperback -1.63157 -6.48765 3.49794
thorax -4.03202 -2.94645 9.65275
lowerneck -11.0122 -0.0969287 -12.8938
upperneck 18.0345 1.5303 3.90513
head 7.24556 0.207824 3.54816
rclavicle 2.00773e-014 6.36111e-015
rhumerus -38.2676 -13.0143 -72.6617
rradius 25.0654
rwrist 10.6293
rhand -10.1788 13.9059
rfingers 7.12502
rthumb 15.8114 -15.4684
lclavicle 2.00773e-014 6.36111e-015
lhumerus -30.0207 15.8918 82.5581
lradius 30.9997
lwrist -8.26576
lhand -18.7758 25.3361
lfingers 7.12502
lthumb 7.52152 55.1824
rfemur -26.7713 0.911553 16.1866
rtibia 20.7525
rfoot -0.596068 -7.70176
rtoes -5.09889
lfemur 12.4095 -3.60498 -30.263
ltibia 19.7552
lfoot -11.3259 -1.88691
ltoes -22.6128
7
root -8.15191 17.3386 -31.1534 0.778677 1.53287 5.84692
lowerback 6.76937 -4.8432 -9.61873
upperback -2.02342 -7.14765 4.03853
thorax -4.24234 -3.23928 10.3738
lowerneck -10.3539 0.548851 -13.5114
upperneck 17.9059 2.44113 3.81623
head 7.0053 0.597474 3.68404
rclavicle 9.98148e-014 -1.43125e-014
rhumerus -38.4231 -11.1077 -72.6615
rradius 25.0483
rwrist 10.1798
rhand -10.2396 13.7543
rfingers 7.12502
rthumb 15.753 -15.6246
lclavicle 9.98148e-014 -1.43125e-014
lhumerus -31.4212 18.058 82.0711
lradius 31.0682
lwrist -8.57584
lhand -18.3747 25.4061
lfingers 7.12502
lthumb 7.9087 55.2381
rfemur -26.3229 0.963537 16.5539
rtibia 20.6566
rfoot 0.0754278 -7.15394
rtoes -4.07055
lfemur 12.3164 -4.11806 -30.0394
ltibia 20.7922
lfoot -9.90929 -1.94151
ltoes -22.7659
8
root -8.16526 17.3747 -30.9746 0.844745 1.45816 5.23259
lowerback 7.26857 -5.58661 -9.89387
upperback -2.89026 -8.19585 5.1511
thorax -5.00282 -3.65112 11.9483
lowerneck -9.05431 1.58481 -14.6433
upperneck 17.7053 3.89971 3.41681
head 6.58158 1.19527 3.81522
rclavicle -7.48424e-014 -1.59028e-015
rhumerus -39.0384 -7.13887 -72.7499
rradius 25.5335
rwrist 9.45939
rhand -11.6589 11.9335
rfingers 7.12502
rthumb 14.3856 -17.548
lclavicle -7.48424e-014 -1.59028e-015
lhumerus -34.0593 21.221 81.4838
lradius 31.3496
lwrist -8.90421
lhand -18.7886 25.5025
lfingers 7.12502
lthumb 7.50917 55.3492
rfemur -25.8996 0.920553 17.2922
rtibia 20.5974
rfoot 0.688428 -6.53155
rtoes -1.74002
lfemur 11.8836 -4.59118 -29.4687
ltibia 22.3139
lfoot -8.72548 -1.91004
ltoes -22.9464
9
root -8.18063 17.4037 -30.7977 0.878501 1.33549 4.74345
lowerback 6.82068 -4.86597 -8.53584
upperback -2.35093 -7.0699 4.51337
thorax -4.70177 -3.18274 10.3054
lowerneck -10.1336 0.665745 -13.58
upperneck 17.7657 2.6232 3.56319
head 6.91104 0.663318 3.61952
rclavicle 4.86525e-014 -1.27222e-014
rhumerus -39.0717 -10.1308 -72.7416
rradius 25.7022
rwrist 9.79266
rhand -11.1096 12.3777
rfingers 7.12502
rthumb 14.9149 -17.0653
lclavicle 4.86525e-014 -1.27222e-014
lhumerus -32.582 19.0426 81.9413
lradius 30.7068
lwrist -9.1294
lhand -18.8294 24.6428
lfingers 7.12502
lthumb 7.46979 54.4909
rfemur -25.4353 0.696732 17.9994
rtibia 20.6082
rfoot 1.14312 -6.08323
rtoes 0.445666
lfemur 11.2563 -4.84051 -28.9689
ltibia 24.1739
lfoot -7.39211 -2.15012
ltoes -23.1569
